<?xml version="1.0" encoding="UTF-8" standalone="no"?>
<!-- Created with Inkscape (http://www.inkscape.org/) -->

<svg
   width="240mm"
   height="120mm"
   viewBox="0 0 240 120"
   version="1.1"
   id="svg8"
   inkscape:version="1.3 (0e150ed6c4, 2023-07-21)"
   sodipodi:docname="addition-of-subspaces.svg"
   xmlns:inkscape="http://www.inkscape.org/namespaces/inkscape"
   xmlns:sodipodi="http://sodipodi.sourceforge.net/DTD/sodipodi-0.dtd"
   xmlns="http://www.w3.org/2000/svg"
   xmlns:svg="http://www.w3.org/2000/svg"
   xmlns:rdf="http://www.w3.org/1999/02/22-rdf-syntax-ns#"
   xmlns:cc="http://creativecommons.org/ns#"
   xmlns:dc="http://purl.org/dc/elements/1.1/">
  <sodipodi:namedview
     id="base"
     pagecolor="#ffffff"
     bordercolor="#666666"
     borderopacity="1.0"
     inkscape:pageopacity="0.0"
     inkscape:pageshadow="2"
     inkscape:zoom="1.6473207"
     inkscape:cx="293.20338"
     inkscape:cy="185.14913"
     inkscape:document-units="mm"
     inkscape:current-layer="layer1"
     showgrid="false"
     showborder="true"
     width="200mm"
     showguides="true"
     inkscape:guide-bbox="true"
     inkscape:window-width="1920"
     inkscape:window-height="1038"
     inkscape:window-x="0"
     inkscape:window-y="42"
     inkscape:window-maximized="1"
     inkscape:showpageshadow="2"
     inkscape:pagecheckerboard="0"
     inkscape:deskcolor="#d1d1d1">
    <inkscape:grid
       type="xygrid"
       id="grid815"
       units="mm"
       spacingx="10"
       spacingy="10"
       empspacing="4"
       dotted="false"
       originx="0"
       originy="0"
       visible="false" />
  </sodipodi:namedview>
  <defs
     id="defs2">
    <marker
       id="marker-arrow-1.5923999999999998"
       orient="auto-start-reverse"
       refY="0"
       refX="0"
       markerHeight="1.690"
       markerWidth="0.911">
      <g
         transform="scale(1.0733986435568954)"
         id="g1">
        <path
           d="M -1.55415,2.0722 C -1.42464,1.29512 0,0.1295 0.38852,0 0,-0.1295 -1.42464,-1.29512 -1.55415,-2.0722"
           style="fill:none;stroke:#000000;stroke-width:0.6;stroke-linecap:round;stroke-linejoin:round;stroke-miterlimit:10;stroke-dasharray:none;stroke-opacity:1"
           inkscape:connector-curvature="0"
           id="path1-7" />
      </g>
    </marker>
  </defs>
  <metadata
     id="metadata5">
    <rdf:RDF>
      <cc:Work
         rdf:about="">
        <dc:format>image/svg+xml</dc:format>
        <dc:type
           rdf:resource="http://purl.org/dc/dcmitype/StillImage" />
        <dc:title />
      </cc:Work>
    </rdf:RDF>
  </metadata>
  <g
     inkscape:label="Layer 1"
     inkscape:groupmode="layer"
     id="layer1"
     transform="translate(0,-177)">
    <path
       style="fill:none;fill-opacity:1.0;stroke:#000000;stroke-linecap:butt;stroke-linejoin:miter;stroke-opacity:1.0;stroke-width:0.26458333333333334"
       d="M75.30073416666667,48.42662135416667L71.79553903345746,42.81713655146531L68.29034390024825,37.20765174876395L68.29034390024825,30.59306841543062L66.46711764041706,24.23472282250528L62.96192250720784,18.62523801980392M68.29034390024825,37.20765174876395L63.374750523392564,32.78163159211942L59.86955539018334,27.172146789418058L58.04632913035215,20.81380119649272M68.29034390024825,37.20765174876395L64.78514876703903,31.59816694606259L61.27995363382981,25.98868214336123L61.27995363382981,19.3740988100279L59.45672737399862,13.01575321710256L55.9515322407894,7.4062684144012M61.27995363382981,25.98868214336123L56.36436025697413,21.562661986716698L52.85916512376491,15.953177184015338L51.035938863933715,9.59483159109M61.27995363382981,25.98868214336123L61.27995363382981,19.3740988100279L61.27995363382981,12.759515476694567L64.78514876703903,7.150030673993208L66.60837502687022,0.79168508106787L66.60837502687022,-5.822898252265463M61.27995363382981,12.759515476694567L59.45672737399862,6.401169883769229L59.45672737399862,-0.21341344956410424L61.27995363382981,-6.571759042489442M61.27995363382981,12.759515476694567L59.45672737399862,6.401169883769229L57.63350111416742,0.04282429084389072L59.45672737399862,-6.315521302081447L59.45672737399862,-12.93010463541478L57.63350111416742,-19.288450228340118M57.63350111416742,0.04282429084389072L54.1283059809582,-5.566660511857469L52.30507972112701,-11.925006104782806L52.30507972112701,-18.53958943811614M57.63350111416742,0.04282429084389072L54.1283059809582,-5.566660511857469L50.62311084774898,-11.176145314558829L50.62311084774898,-17.790728647892163L48.79988458791779,-24.1490742408175L45.29468945470857,-29.75855904351886M50.62311084774898,-11.176145314558829L45.7075174708933,-15.60216547120336L42.20232233768408,-21.21165027390472L40.379096077852886,-27.56999586683006M61.27995363382981,25.98868214336123L56.36436025697413,21.562661986716698L51.44876688011845,17.136641830072165L49.62554062028725,10.778296237146826L46.12034548707803,5.168811434445466L41.20475211022235,0.7427912778009347M51.44876688011845,17.136641830072165L45.50361876136875,14.236999348706913L40.58802538451307,9.810979192062382L37.08283025130385,4.201494389361022M51.44876688011845,17.136641830072165L47.94357174690923,11.527157027370805L44.43837661370001,5.917672224669445L44.43837661370001,-0.6969111086638877L42.61515035386881,-7.055256701589226L39.10995522065959,-12.664741504290586M44.43837661370001,5.917672224669445L39.522783236844326,1.491652068024914L36.017588103635106,-4.117832734676446L34.19436184380391,-10.476178327601783M44.43837661370001,5.917672224669445L42.61515035386881,-0.44067336825589276L40.79192409403762,-6.799018961181231L42.61515035386881,-13.157364554106568L42.61515035386881,-19.7719478874399L40.79192409403762,-26.13029348036524M40.79192409403762,-6.799018961181231L37.2867289608284,-12.40850376388259L35.4635027009972,-18.766849356807928L35.4635027009972,-25.38143269014126M61.27995363382981,25.98868214336123L57.77475850062059,20.37919734065987L54.26956336741137,14.769712537958512L54.26956336741137,8.15512920462518L52.44633710758018,1.7967836116998415L48.94114197437096,-3.8127011910015183M54.26956336741137,14.769712537958512L49.35396999055569,10.34369238131398L45.84877485734647,4.7342075786126205L44.025548597515275,-1.6241380143127175M54.26956336741137,14.769712537958512L50.76436823420215,9.160227735257152L47.25917310099293,3.550742932555792L47.25917310099293,-3.063840400777541L45.43594684116174,-9.422185993702879L41.93075170795252,-15.031670796404239M47.25917310099293,3.550742932555792L42.34357972413725,-0.8752772240887392L38.83838459092803,-6.484762026790099L37.015158331096835,-12.843107619715436M47.25917310099293,3.550742932555792L47.25917310099293,-3.063840400777541L47.25917310099293,-9.678423734110874L50.76436823420215,-15.287908536812232L52.58759449403335,-21.64625412973757L52.58759449403335,-28.260837463070903M47.25917310099293,-9.678423734110874L45.43594684116174,-16.03676932703621L45.43594684116174,-22.651352660369543L47.25917310099293,-29.009698253294882M47.25917310099293,-9.678423734110874L45.43594684116174,-16.03676932703621L43.61272058133054,-22.39511491996155L45.43594684116174,-28.75346051288689L45.43594684116174,-35.368043846220225L43.61272058133054,-41.726389439145564M43.61272058133054,-22.39511491996155L40.10752544812132,-28.00459972266291L38.28429918829013,-34.36294531558825L38.28429918829013,-40.977528648921584M43.61272058133054,-22.39511491996155L40.10752544812132,-28.00459972266291L36.6023303149121,-33.61408452536427L36.6023303149121,-40.228667858697605L34.77910405508091,-46.587013451622944L31.273908921871687,-52.196498254324304M36.6023303149121,-33.61408452536427L31.686736938056423,-38.0401046820088L28.181541804847203,-43.64958948471016L26.358315545016012,-50.0079350776355M47.25917310099293,3.550742932555792L42.34357972413725,-0.8752772240887392L37.42798634728157,-5.301297380733271L35.60476008745037,-11.65964297365861L32.09956495424115,-17.26912777635997L27.183971577385474,-21.6951479330045M37.42798634728157,-5.301297380733271L31.482838228531868,-8.200939862098522L26.56724485167619,-12.626960018743054L23.06204971846697,-18.236444821444415M37.42798634728157,-5.301297380733271L33.92279121407235,-10.91078218343463L30.417596080863127,-16.52026698613599L30.417596080863127,-23.134850319469322L28.594369821031936,-29.49319591239466L25.089174687822716,-35.10268071509602M30.417596080863127,-16.52026698613599L25.50200270400745,-20.94628714278052L21.99680757079823,-26.55577194548188L20.173581310967037,-32.91411753840722M30.417596080863127,-16.52026698613599L28.594369821031936,-22.87861257906133L26.771143561200745,-29.236958171986668L28.594369821031936,-35.595303764912L28.594369821031936,-42.20988709824534L26.771143561200745,-48.56823269117068M26.771143561200745,-29.236958171986668L23.265948427991525,-34.84644297468803L21.442722168160333,-41.20478856761337L21.442722168160333,-47.819371900946706M47.25917310099293,3.550742932555792L47.25917310099293,-3.063840400777541L47.25917310099293,-9.678423734110874L50.76436823420215,-15.287908536812232L52.58759449403335,-21.64625412973757L52.58759449403335,-28.260837463070903M47.25917310099293,-9.678423734110874L45.43594684116174,-16.03676932703621L45.43594684116174,-22.651352660369543L47.25917310099293,-29.009698253294882M47.25917310099293,-9.678423734110874L47.25917310099293,-16.293007067444208L47.25917310099293,-22.90759040077754L50.76436823420215,-28.5170752034789L52.58759449403335,-34.875420796404235L52.58759449403335,-41.49000412973757M47.25917310099293,-22.90759040077754L45.43594684116174,-29.26593599370288L45.43594684116174,-35.88051932703621L47.25917310099293,-42.23886491996155M47.25917310099293,-22.90759040077754L50.76436823420215,-28.5170752034789L54.26956336741137,-34.126560006180256L60.21471148616107,-37.026202487545504L65.13030486301675,-41.45222264419004L68.63549999622596,-47.0617074468914M54.26956336741137,-34.126560006180256L56.09278962724257,-40.484905599105595L59.59798476045179,-46.094390401806955L64.51357813730746,-50.52041055845149M54.26956336741137,-34.126560006180256L56.09278962724257,-40.484905599105595L57.91601588707376,-46.843251192030934L62.831609263929444,-51.26927134867547L66.33680439713866,-56.87875615137683L68.16003065696985,-63.237101744302166M57.91601588707376,-46.843251192030934L57.91601588707376,-53.45783452536427L59.73924214690496,-59.81618011828961L63.24443728011418,-65.42566492099097M57.91601588707376,-46.843251192030934L57.91601588707376,-53.45783452536427L57.91601588707376,-60.072417858697605L61.42121102028298,-65.68190266139896L63.24443728011418,-72.0402482543243L63.24443728011418,-78.65483158765763M57.91601588707376,-60.072417858697605L56.09278962724257,-66.43076345162294L56.09278962724257,-73.04534678495627L57.91601588707376,-79.4036923778816M47.25917310099293,-22.90759040077754L45.43594684116174,-29.26593599370288L43.61272058133054,-35.624281586628214L45.43594684116174,-41.98262717955355L45.43594684116174,-48.59721051288689L43.61272058133054,-54.95555610581223M43.61272058133054,-35.624281586628214L40.10752544812132,-41.233766389329574L38.28429918829013,-47.59211198225491L38.28429918829013,-54.20669531558825M43.61272058133054,-35.624281586628214L43.61272058133054,-42.23886491996155L43.61272058133054,-48.853448253294886L47.11791571453976,-54.462933055996245L48.94114197437096,-60.821278648921584L48.94114197437096,-67.43586198225492M43.61272058133054,-48.853448253294886L41.78949432149935,-55.211793846220225L41.78949432149935,-61.82637717955356L43.61272058133054,-68.18472277247889M43.61272058133054,-48.853448253294886L45.43594684116174,-55.211793846220225L47.25917310099293,-61.570139439145564L52.174766477848614,-65.99615959579009L55.679961611057834,-71.60564439849145L57.50318787088903,-77.96398999141678M47.25917310099293,-61.570139439145564L47.25917310099293,-68.18472277247889L49.08239936082413,-74.54306836540422L52.58759449403335,-80.15255316810558M47.25917310099293,-22.90759040077754L45.43594684116174,-29.26593599370288L43.61272058133054,-35.624281586628214L45.43594684116174,-41.98262717955355L45.43594684116174,-48.59721051288689L43.61272058133054,-54.95555610581223M43.61272058133054,-35.624281586628214L40.10752544812132,-41.233766389329574L38.28429918829013,-47.59211198225491L38.28429918829013,-54.20669531558825M43.61272058133054,-35.624281586628214L41.78949432149935,-41.98262717955355L39.96626806166815,-48.34097277247889L41.78949432149935,-54.69931836540423L41.78949432149935,-61.31390169873757L39.96626806166815,-67.6722472916629M39.96626806166815,-48.34097277247889L36.46107292845893,-53.95045757518025L34.63784666862774,-60.30880316810559L34.63784666862774,-66.92338650143893M39.96626806166815,-48.34097277247889L41.78949432149935,-54.69931836540423L43.61272058133054,-61.05766395832957L48.528313958186224,-65.4836841149741L52.033509091395445,-71.09316891767546L53.85673535122664,-77.45151451060079M43.61272058133054,-61.05766395832957L43.61272058133054,-67.6722472916629L45.43594684116174,-74.03059288458823L48.94114197437096,-79.64007768728959M43.61272058133054,-61.05766395832957L43.61272058133054,-67.6722472916629L43.61272058133054,-74.28683062499623L47.11791571453976,-79.89631542769759L48.94114197437096,-86.25466102062292L48.94114197437096,-92.86924435395625M43.61272058133054,-74.28683062499623L41.78949432149935,-80.64517621792156L41.78949432149935,-87.25975955125489L43.61272058133054,-93.61810514418022M43.61272058133054,-74.28683062499623L41.78949432149935,-80.64517621792156L39.96626806166815,-87.00352181084689L41.78949432149935,-93.36186740377222L41.78949432149935,-99.97645073710555L39.96626806166815,-106.33479633003088M39.96626806166815,-87.00352181084689L36.46107292845893,-92.61300661354825L34.63784666862774,-98.97135220647358L34.63784666862774,-105.58593553980691M39.96626806166815,-48.34097277247889L36.46107292845893,-53.95045757518025L32.95587779524971,-59.55994237788161L32.95587779524971,-66.17452571121494L31.13265153541852,-72.53287130414027L27.6274564022093,-78.14235610684163M32.95587779524971,-59.55994237788161L28.040284418394034,-63.985962534526145L24.535089285184814,-69.59544733722751L22.711863025353622,-75.95379293015284M32.95587779524971,-59.55994237788161L31.13265153541852,-65.91828797080694L29.30942527558733,-72.27663356373228L31.13265153541852,-78.63497915665761L31.13265153541852,-85.24956248999094L29.30942527558733,-91.60790808291627M29.30942527558733,-72.27663356373228L25.80423014237811,-77.88611836643364L23.98100388254692,-84.24446395935897L23.98100388254692,-90.8590472926923M29.30942527558733,-72.27663356373228L29.30942527558733,-78.8912168970656L29.30942527558733,-85.50580023039893L32.81462040879655,-91.11528503310029L34.637846668627745,-97.47363062602562L34.637846668627745,-104.08821395935895M29.30942527558733,-85.50580023039893L27.48619901575614,-91.86414582332426L27.48619901575614,-98.4787291566576L29.30942527558733,-104.83707474958292M39.96626806166815,-48.34097277247889L36.46107292845893,-53.95045757518025L32.95587779524971,-59.55994237788161L32.95587779524971,-66.17452571121494L31.13265153541852,-72.53287130414027L27.6274564022093,-78.14235610684163M32.95587779524971,-59.55994237788161L28.040284418394034,-63.985962534526145L24.535089285184814,-69.59544733722751L22.711863025353622,-75.95379293015284M32.95587779524971,-59.55994237788161L29.450682662040492,-65.16942718058297L25.945487528831272,-70.77891198328433L25.945487528831272,-77.39349531661766L24.12226126900008,-83.75184090954299L20.61706613579086,-89.36132571224435M25.945487528831272,-70.77891198328433L21.029894151975594,-75.20493213992886L17.524699018766373,-80.81441694263022L15.701472758935182,-87.17276253555555M25.945487528831272,-70.77891198328433L25.945487528831272,-77.39349531661766L25.945487528831272,-84.00807864995099L29.450682662040492,-89.61756345265235L31.273908921871683,-95.97590904557768L31.273908921871683,-102.59049237891101M25.945487528831272,-84.00807864995099L24.12226126900008,-90.36642424287632L24.12226126900008,-96.98100757620965L25.945487528831272,-103.33935316913498M25.945487528831272,-84.00807864995099L24.12226126900008,-90.36642424287632L22.29903500916889,-96.72476983580165L24.12226126900008,-103.08311542872698L24.12226126900008,-109.69769876206031L22.29903500916889,-116.05604435498564M22.29903500916889,-96.72476983580165L18.79383987595967,-102.33425463850301L16.970613616128478,-108.69260023142834L16.970613616128478,-115.30718356476167M22.29903500916889,-96.72476983580165L18.79383987595967,-102.33425463850301L15.288644742750451,-107.94373944120437L15.288644742750451,-114.5583227745377L13.46541848291926,-120.91666836746303L9.960223349710041,-126.52615317016439M15.288644742750451,-107.94373944120437L10.37305136589477,-112.3697595978489L6.867856232685552,-117.97924440055026L5.044629972854361,-124.33758999347559M25.945487528831272,-70.77891198328433L21.029894151975594,-75.20493213992886L16.114300775119915,-79.63095229657338L14.291074515288724,-85.98929788949872L10.785879382079505,-91.59878269220007L5.870286005223826,-96.0248028488446M16.114300775119915,-79.63095229657338L10.169152656370215,-82.53059477793863L5.253559279514536,-86.95661493458316L1.7483641463053172,-92.56609973728452M16.114300775119915,-79.63095229657338L12.609105641910697,-85.24043709927474L9.103910508701478,-90.8499219019761L9.103910508701478,-97.46450523530943L7.280684248870287,-103.82285082823476L3.775489115661068,-109.43233563093612M9.103910508701478,-90.8499219019761L4.188317131845799,-95.27594205862063L0.68312199863658,-100.88542686132199L-1.1401042611946115,-107.24377245424732M9.103910508701478,-90.8499219019761L7.280684248870287,-97.20826749490143L5.457457989039096,-103.56661308782677L7.280684248870288,-109.9249586807521L7.280684248870288,-116.53954201408543L5.457457989039097,-122.89788760701076M5.457457989039096,-103.56661308782677L1.952262855829877,-109.17609789052813L0.12903659599868544,-115.53444348345346L0.12903659599868586,-122.14902681678679M47.25917310099293,3.550742932555792L42.34357972413725,-0.8752772240887392L37.42798634728157,-5.301297380733271L35.60476008745037,-11.65964297365861L32.09956495424115,-17.26912777635997L27.183971577385474,-21.6951479330045M37.42798634728157,-5.301297380733271L31.482838228531868,-8.200939862098522L26.56724485167619,-12.626960018743054L23.06204971846697,-18.236444821444415M37.42798634728157,-5.301297380733271L32.512392970425886,-9.727317537377802L27.596799593570207,-14.153337694022333L25.773573333739016,-20.511683286947672L22.268378200529796,-26.121168089649032L17.352784823674117,-30.547188246293565M27.596799593570207,-14.153337694022333L21.651651474820508,-17.052980175387585L16.73605809796483,-21.479000332032115L13.23086296475561,-27.088485134733475M27.596799593570207,-14.153337694022333L25.773573333739016,-20.511683286947672L23.950347073907825,-26.87002887987301L25.773573333739016,-33.22837447279835L25.773573333739016,-39.842957806131686L23.950347073907825,-46.201303399057025M23.950347073907825,-26.87002887987301L20.445151940698604,-32.47951368257437L18.621925680867413,-38.83785927549971L18.621925680867413,-45.452442608833046M23.950347073907825,-26.87002887987301L20.445151940698604,-32.47951368257437L16.939956807489384,-38.08899848527573L16.939956807489384,-44.70358181860907L15.116730547658193,-51.061927411534406L11.611535414448975,-56.671412214235765M16.939956807489384,-38.08899848527573L12.024363430633706,-42.515018641920264L8.519168297424487,-48.124503444621624L6.695942037593296,-54.48284903754696M16.939956807489384,-38.08899848527573L12.024363430633706,-42.515018641920264L7.108770053778026,-46.9410387985648L5.285543793946835,-53.299384391490136L1.7803486607376162,-58.908869194191496L-3.135244716118063,-63.33488935083603M7.108770053778026,-46.9410387985648L1.1636219350283277,-49.840681279930045L-3.7519714418273518,-54.26670143657458L-7.257166575036571,-59.87618623927594M27.596799593570207,-14.153337694022333L21.651651474820508,-17.052980175387585L15.706503356070808,-19.952622656752837L12.20130822286159,-25.562107459454197L7.28571484600591,-29.98812761609873L1.3405667272562116,-32.88777009746398M15.706503356070808,-19.952622656752837L9.192410406458809,-21.10123299861222L3.24726228770911,-24.00087547997747L-1.6683310891465695,-28.426895636622M15.706503356070808,-19.952622656752837L10.79090997921513,-24.37864281339737L5.87531660235945,-28.804662970041903L4.052090342528259,-35.16300856296724L0.54689520931904,-40.7724933656686L-4.368698167536639,-45.198513522313135M5.87531660235945,-28.804662970041903L-0.06983151639024854,-31.704305451407155L-4.985424893245928,-36.130325608051685L-8.490620026455147,-41.739810410753044M5.87531660235945,-28.804662970041903L2.3701214691502313,-34.41414777274326L-1.1350736640589876,-40.02363257544462L-1.1350736640589871,-46.63821590877796L-2.958299923890179,-52.9965615017033L-6.463495057099397,-58.60604630440466M-1.1350736640589876,-40.02363257544462L-6.050667040914667,-44.449652732089156L-9.555862174123886,-50.059137534790516L-11.379088433955078,-56.417483127715855M27.596799593570207,-14.153337694022333L24.091604460360987,-19.762822496723693L20.586409327151767,-25.372307299425053L20.586409327151767,-31.986890632758385L18.763183067320576,-38.34523622568372L15.257987934111357,-43.95472102838508M20.586409327151767,-25.372307299425053L15.670815950296088,-29.798327456069586L12.16562081708687,-35.407812258770946L10.342394557255679,-41.766157851696285M20.586409327151767,-25.372307299425053L17.081214193942547,-30.981792102126413L13.576019060733328,-36.59127690482777L13.576019060733328,-43.20586023816111L11.752792800902137,-49.56420583108645L8.247597667692919,-55.17369063378781M13.576019060733328,-36.59127690482777L8.660425683877648,-41.017297061472306L5.1552305506684295,-46.626781864173665L3.3320042908372383,-52.985127457099004M13.576019060733328,-36.59127690482777L13.576019060733328,-43.20586023816111L13.576019060733328,-49.820443571494444L17.081214193942547,-55.4299283741958L18.904440453773738,-61.78827396712114L18.904440453773738,-68.40285730045447M13.576019060733328,-49.820443571494444L11.752792800902137,-56.17878916441978L11.752792800902137,-62.79337249775312L13.57601906073333,-69.15171809067846M13.576019060733328,-49.820443571494444L11.752792800902137,-56.17878916441978L9.929566541070946,-62.53713475734512L11.752792800902139,-68.89548035027046L11.752792800902139,-75.51006368360379L9.929566541070947,-81.86840927652912M9.929566541070946,-62.53713475734512L6.424371407861727,-68.14661956004647L4.601145148030536,-74.5049651529718L4.601145148030536,-81.11954848630513M9.929566541070946,-62.53713475734512L6.424371407861727,-68.14661956004647L2.9191762746525085,-73.75610436274783L2.919176274652509,-80.37068769608116L1.0959500148213175,-86.7290332890065L-2.4092451183879016,-92.33851809170785M2.9191762746525085,-73.75610436274783L-1.996417102203171,-78.18212451939236L-5.50161223541239,-83.79160932209372L-7.324838495243581,-90.14995491501905M13.576019060733328,-36.59127690482777L8.660425683877648,-41.017297061472306L3.7448323070219685,-45.44331721811684L1.921606047190777,-51.80166281104218L-1.5835890860184418,-57.41114761374354L-6.4991824628741215,-61.83716777038807M3.7448323070219685,-45.44331721811684L-2.20031581172773,-48.34295969948209L-7.11590918858341,-52.76897985612662L-10.621104321792629,-58.37846465882798M3.7448323070219685,-45.44331721811684L0.23963717381274963,-51.0528020208182L-3.265557959396469,-56.66228682351956L-3.2655579593964688,-63.276870156852894L-5.08878421922766,-69.63521574977823L-8.593979352436879,-75.24470055247959M-3.265557959396469,-56.66228682351956L-8.18115133625215,-61.08830698016409L-11.686346469461368,-66.69779178286545L-13.50957272929256,-73.05613737579078M-3.265557959396469,-56.66228682351956L-5.08878421922766,-63.0206324164449L-6.912010479058852,-69.37897800937023L-5.0887842192276596,-75.73732360229556L-5.0887842192276596,-82.35190693562889L-6.912010479058851,-88.71025252855422M-6.912010479058852,-69.37897800937023L-10.41720561226807,-74.98846281207159L-12.240431872099261,-81.34680840499692L-12.240431872099261,-87.96139173833025M13.576019060733328,-36.59127690482777L11.752792800902137,-42.94962249775311L9.929566541070946,-49.30796809067845L11.752792800902139,-55.66631368360379L11.752792800902139,-62.280897016937125L9.929566541070947,-68.63924260986246M9.929566541070946,-49.30796809067845L6.424371407861727,-54.91745289337981L4.601145148030536,-61.27579848630515L4.601145148030536,-67.89038181963848M9.929566541070946,-49.30796809067845L8.106340281239754,-55.66631368360379L6.283114021408563,-62.02465927652913L8.106340281239756,-68.38300486945447L8.106340281239756,-74.9975882027878L6.283114021408565,-81.35593379571313M6.283114021408563,-62.02465927652913L2.7779188881993444,-67.63414407923048L0.9546926283681529,-73.99248967215581L0.9546926283681534,-80.60707300548914M6.283114021408563,-62.02465927652913L8.106340281239756,-68.38300486945447L9.92956654107095,-74.7413504623798L14.84515991792663,-79.16737061902433L18.35035505113585,-84.77685542172568L20.17358131096704,-91.13520101465102M9.92956654107095,-74.7413504623798L9.92956654107095,-81.35593379571313L11.752792800902142,-87.71427938863846L15.257987934111362,-93.32376419133982M9.92956654107095,-74.7413504623798L9.92956654107095,-81.35593379571313L9.92956654107095,-87.97051712904646L13.43476167428017,-93.58000193174782L15.257987934111362,-99.93834752467315L15.257987934111362,-106.55293085800648M9.92956654107095,-87.97051712904646L8.106340281239758,-94.32886272197179L8.106340281239758,-100.94344605530512L9.929566541070951,-107.30179164823045M9.92956654107095,-87.97051712904646L8.106340281239758,-94.32886272197179L6.283114021408567,-100.68720831489712L8.10634028123976,-107.04555390782245L8.10634028123976,-113.66013724115578L6.283114021408569,-120.01848283408111M6.283114021408567,-100.68720831489712L2.777918888199348,-106.29669311759848L0.9546926283681565,-112.65503871052381L0.9546926283681569,-119.26962204385714M6.283114021408563,-62.02465927652913L2.7779188881993444,-67.63414407923048L-0.7272762450098744,-73.24362888193184L-0.727276245009874,-79.85821221526517L-2.5505025048410657,-86.2165578081905L-6.055697638050285,-91.82604261089186M-0.7272762450098744,-73.24362888193184L-5.642869621865554,-77.66964903857637L-9.148064755074772,-83.27913384127773L-10.971291014905963,-89.63747943420306M-0.7272762450098744,-73.24362888193184L-2.5505025048410657,-79.60197447485717L-4.373728764672257,-85.9603200677825L-2.5505025048410648,-92.31866566070784L-2.5505025048410643,-98.93324899404116L-4.373728764672256,-105.2915945869665M-4.373728764672257,-85.9603200677825L-7.878923897881476,-91.56980487048386L-9.702150157712667,-97.9281504634092L-9.702150157712667,-104.54273379674252M-4.373728764672257,-85.9603200677825L-4.373728764672257,-92.57490340111583L-4.373728764672257,-99.18948673444916L-0.8685336314630372,-104.79897153715052L0.9546926283681552,-111.15731713007585L0.9546926283681556,-117.77190046340918M-4.373728764672257,-99.18948673444916L-6.196955024503448,-105.5478323273745L-6.196955024503448,-112.16241566070782L-4.373728764672256,-118.52076125363315"
       id="path1" />
    <path
       style="opacity:0.416654;fill-opacity:0.12;stroke:#000000;stroke-width:0.421322;stroke-linecap:round;stroke-miterlimit:4.3;paint-order:fill markers stroke"
       d="m 48.502818,199.84256 v 76.58668"
       id="path2" />
    <path
       style="opacity:0.416654;fill-opacity:0.12;stroke:#000000;stroke-width:0.421322;stroke-linecap:round;stroke-miterlimit:4.3;paint-order:fill markers stroke"
       d="M 35.33781,267.16731 H 171.78929"
       id="path3" />
    <path
       style="opacity:0.416654;fill-opacity:1;stroke:black;stroke-width:0.4213225;stroke-linecap:round;stroke-miterlimit:4.3;paint-order:fill markers stroke;fill:none;marker-end:none;marker-start:none;stroke-dasharray:1.05330625,1.05330625;stroke-opacity:1"
       d="M 37.069347,278.72772 112.81878,202.88261"
       id="path4" />
    <path
       style="opacity:0.416654;fill:none;fill-opacity:1;stroke:#000000;stroke-width:0.421322;stroke-linecap:round;stroke-miterlimit:4.3;stroke-dasharray:1.05331, 1.05331;stroke-opacity:1;marker-start:none;marker-end:none;paint-order:fill markers stroke"
       d="M 38.458806,271.74069 131.54387,231.31988"
       id="path5" />
    <text
       style="font-size:2.64583px;font-family:monospace;-inkscape-font-specification:'monospace, Normal';fill:#000000;fill-opacity:1;stroke:none;stroke-width:0.264583"
       xml:space="preserve"
       id="text1"
       y="209.092"
       x="112.81878"><tspan
         sodipodi:role="line"
         id="tspan1"
         x="112.81878"
         y="209.092"
         style="stroke-width:0.264583">$U_1$</tspan></text>
    <text
       style="font-size:2.64583px;font-family:monospace;-inkscape-font-specification:'monospace, Normal';fill:#000000;fill-opacity:1;stroke:none;stroke-width:0.264583"
       xml:space="preserve"
       id="text1-3"
       y="237.72844"
       x="131.15729"><tspan
         sodipodi:role="line"
         id="tspan1-6"
         x="131.15729"
         y="237.72844"
         style="stroke-width:0.264583">$U_2$</tspan></text>
    <ellipse
       style="opacity:0.416654;fill:#000000;fill-opacity:1;stroke:#000000;stroke-width:0.421322;stroke-linecap:round;stroke-miterlimit:4.3;stroke-dasharray:none;stroke-opacity:1;marker-start:none;marker-end:none;paint-order:fill markers stroke"
       id="path6"
       cx="108.29089"
       cy="240.91049"
       rx="2.7709498"
       ry="2.7745984" />
    <ellipse
       style="opacity:0.416654;fill:#000000;fill-opacity:1;stroke:#000000;stroke-width:0.421322;stroke-linecap:round;stroke-miterlimit:4.3;stroke-dasharray:none;stroke-opacity:1;marker-start:none;marker-end:none;paint-order:fill markers stroke"
       id="ellipse6"
       cx="81.248894"
       cy="234.93997"
       rx="2.7709498"
       ry="2.7745984" />
    <path
       style="opacity:0.416654;fill:none;fill-opacity:1;stroke:#0000ff;stroke-width:0.421322;stroke-linecap:round;stroke-miterlimit:4.3;stroke-dasharray:none;stroke-opacity:1;marker-start:none;marker-end:url(#marker-arrow-1.5923999999999998);paint-order:fill markers stroke"
       d="M 48.799979,267.13553 105.86761,242.68586"
       id="path7" />
    <path
       style="opacity:0.416654;fill:none;fill-opacity:1;stroke:#ff2a2a;stroke-width:0.421322;stroke-linecap:round;stroke-miterlimit:4.3;stroke-dasharray:none;stroke-opacity:1;marker-start:none;marker-end:url(#marker-arrow-1.5923999999999998);paint-order:fill markers stroke"
       d="M 48.713479,266.95665 78.885946,237"
       id="path8" />
    <path
       style="opacity:0.416654;fill:none;fill-opacity:1;stroke:#ff2a2a;stroke-width:0.421322;stroke-linecap:round;stroke-miterlimit:4.3;stroke-dasharray:none;stroke-opacity:1;marker-start:none;marker-end:url(#marker-arrow-1.5923999999999998);paint-order:fill markers stroke"
       d="m 105.86761,242.68586 30.17246,-29.95665"
       id="path9" />
    <path
       style="opacity:0.416654;fill:none;fill-opacity:1;stroke:#0000ff;stroke-width:0.421322;stroke-linecap:round;stroke-miterlimit:4.3;stroke-dasharray:none;stroke-opacity:1;marker-start:none;marker-end:url(#marker-arrow-1.5923999999999998);paint-order:fill markers stroke"
       d="M 78.972439,237.17888 136.04007,212.72921"
       id="path10" />
    <path
       style="opacity:0.416654;fill:none;fill-opacity:1;stroke:#00ff00;stroke-width:0.421322;stroke-linecap:round;stroke-miterlimit:4.3;stroke-dasharray:none;stroke-opacity:1;marker-start:none;marker-end:url(#marker-arrow-1.5923999999999998);paint-order:fill markers stroke"
       d="M 48.713479,266.95665 136.04007,212.72921"
       id="path11" />
    <text
       style="font-size:2.64583px;font-family:monospace;-inkscape-font-specification:'monospace, Normal';fill:#000000;fill-opacity:1;stroke:none;stroke-width:0.264583"
       xml:space="preserve"
       id="text1-5"
       y="244.90471"
       x="60.96904"><tspan
         sodipodi:role="line"
         id="tspan1-3"
         x="60.96904"
         y="244.90471"
         style="stroke-width:0.264583">$v_1$</tspan></text>
    <text
       style="font-size:2.64583px;font-family:monospace;-inkscape-font-specification:'monospace, Normal';fill:#000000;fill-opacity:1;stroke:none;stroke-width:0.264583"
       xml:space="preserve"
       id="text1-56"
       y="254.24841"
       x="89.220093"><tspan
         sodipodi:role="line"
         id="tspan1-2"
         x="89.220093"
         y="254.24841"
         style="stroke-width:0.264583">$v_2$</tspan></text>
  </g>
</svg>
